REM MD5 3803dc92915ff5042102bdca43aa2200
FILE "Colin McRae Rally (Italy) (Rev 2).bin" BINARY
  TRACK 01 MODE2/2352
    INDEX 01 00:00:00
  TRACK 02 AUDIO
    INDEX 00 18:43:49
    INDEX 01 18:45:49
  TRACK 03 AUDIO
    INDEX 00 23:59:49
    INDEX 01 24:01:49
  TRACK 04 AUDIO
    INDEX 00 26:58:74
    INDEX 01 27:00:74
REM LEADOUT 32:14:72
